<?xml version="1.0" encoding="UTF-8" standalone="no"?>
<!DOCTYPE svg PUBLIC "-//W3C//DTD SVG 1.1//EN" "http://www.w3.org/Graphics/SVG/1.1/DTD/svg11.dtd">
<svg width="100%" height="100%" viewBox="0 0 641 250" version="1.1" xmlns="http://www.w3.org/2000/svg" xmlns:xlink="http://www.w3.org/1999/xlink" xml:space="preserve" xmlns:serif="http://www.serif.com/" style="fill-rule:evenodd;clip-rule:evenodd;stroke-linejoin:round;stroke-miterlimit:2;">
    <path d="M627.24,56.55C609.82,63.95 597.34,83.13 597.77,101.92C597.88,106.65 598.16,111.38 598.3,116.12C598.53,123.23 598.64,130.36 596.88,137.32C595.13,144.28 591.43,149.84 584.53,152.58C581.45,153.8 578.03,154.15 575.2,151.95C572.21,149.64 572.58,146.19 573.11,142.93C573.53,140.43 574.57,138.11 575.85,135.94C579.42,129.93 584.24,125.2 590.62,122.27C593.51,120.94 593.56,119.39 591.79,117.16C588.18,112.58 581.88,111.56 577.11,114.92C573.6,117.41 570.64,120.52 567.7,123.68C557.15,134.99 545.62,145.14 531.86,152.47C527.38,154.86 522.69,156.63 517.51,156.7C513.8,156.75 511.71,154.65 511.99,151.24C512.49,145.13 514.2,139.31 518.78,134.79C517.97,138.49 519.2,140.25 522.76,140.48C524.9,140.61 526.92,139.98 528.77,139.06C547.2,129.91 562.36,117.02 573.53,99.64C574.88,97.54 575.92,95.19 576.8,92.85C579.92,84.53 575.33,78.5 566.5,79.35C559.47,80.03 552.93,82.34 546.72,85.7C531.51,93.93 520.08,106.15 509.86,119.85C497.83,135.96 482.74,148.73 465.34,158.76C461.08,161.23 456.46,162.9 451.45,163.06C446.97,163.2 444.73,160.95 445.24,156.51C445.83,151.39 447.83,146.75 450.86,142.11C452.19,146.85 455.28,147.46 459,146.49C463.49,145.31 467.53,143.11 471.4,140.62C480.81,134.57 489.02,127.1 496.91,119.23C502.36,113.82 506.47,107.56 509.54,100.57C511.29,96.61 511.98,92.54 509.09,88.78C506.36,85.22 502.47,85.32 498.54,85.86C490.3,86.97 482.79,90.04 475.86,94.49C455.42,107.64 440.91,125.79 431.15,147.88C429.89,150.74 429.06,153.73 428.6,156.84C426.68,169.73 433.95,177.57 446.88,176.53C458.53,175.59 468.33,170.13 477.84,163.94C483.78,160.08 489.21,155.52 494.92,150.66C495.02,152.9 495.02,154.64 495.2,156.35C496.13,164.99 501.51,170.01 510.22,170.18C512.86,170.24 515.55,169.97 518.17,169.49C528.77,167.58 537.79,162.16 546.52,156.21C549.92,153.9 553.15,151.35 556.57,148.84C559.02,161.04 566.38,167.01 578.02,166.45C596.93,165.54 612.5,150.01 613.22,131.13C613.61,120.63 613.67,110.1 613.94,99.58C614.14,91.49 616.09,84.16 622.26,78.26C627.69,73.06 633.8,69.03 640.59,65.96L640.59,61.52C636.43,55.39 633.04,54.15 627.27,56.6L627.24,56.55ZM519.88,131.41C528.2,118.72 537.79,107.16 550.01,97.97C552.85,95.83 555.86,93.93 559.32,92.95C560.58,92.6 562.07,92.04 563.07,93.25C564.19,94.63 563.27,96.08 562.54,97.35C560.31,101.2 557.6,104.71 554.48,107.88C543.96,118.56 532.73,128.26 518.88,134.49C518.34,133.21 519.3,132.31 519.89,131.41L519.88,131.41ZM488.69,101C490.93,99.65 494.21,97.33 496.3,99.87C498.15,102.11 495.37,104.79 493.81,106.81C483.92,119.63 471.92,130.06 457.78,138.01C456.06,138.98 454.16,139.65 452.33,140.46C461.76,124.63 472.77,110.5 488.69,101Z" style="fill:rgb(154,154,154);fill-rule:nonzero;"/>
    <path d="M29.36,250C26.03,248.84 22.56,247.96 19.4,246.45C11.93,242.89 8.34,235.91 9.9,228.73C11.51,221.32 19.35,214.65 26.74,214.44C28.69,214.38 30.81,214.35 31.85,216.33C32.95,218.43 31.4,219.89 30.08,221.36C27.09,224.69 27.18,227.5 30.54,230.49C34.56,234.06 39.52,235.38 44.64,234.42C66.21,230.37 84.37,220.29 98.21,203.01C100.16,200.58 101.51,197.75 102.5,194.77C104.48,188.78 102.45,185.01 96.28,183.5C90.69,182.13 85.08,182.8 79.51,183.75C74.97,184.53 70.59,185.88 66.37,187.77C65.23,188.28 63.95,189.45 62.75,188.12C61.73,186.99 62.31,185.58 62.77,184.33C65.06,178.08 68.91,172.9 75.17,170.54C83,167.58 90.2,163.54 97.3,159.28C120.99,145.04 143.29,128.93 162.7,109.1C171.44,100.17 179.27,90.53 184.46,79.01C189.6,67.59 186.1,61.92 173.45,61.3C162.5,60.77 151.89,62.94 141.47,65.9C104.53,76.39 69.99,91.93 39.33,115.36C32.13,120.86 25.52,127.06 20.37,134.59C17.18,139.25 14.14,144.05 15.11,150.16C15.47,152.46 14.11,152.87 12.18,152.86C7.1,152.86 3.07,150.85 0,146.83L0,139.71C5.89,122.53 18.16,110.4 32.4,100.25C72.4,71.73 116.51,53.16 165.46,46.83C173.72,45.76 182.04,45.91 190.2,48.01C203.73,51.48 208.84,60.28 205.1,73.77C203.05,81.16 199.07,87.58 194.61,93.73C187.71,103.25 179.68,111.75 171.09,119.73C151.49,137.94 130.43,154.23 107.43,167.96C106.7,168.4 106.02,168.92 105.16,169.51C121.75,175.31 125.47,184.28 117.89,200.04C113.77,208.6 107.62,215.63 100.42,221.68C84.2,235.33 66.3,245.71 45.07,249.39C44.85,249.43 44.68,249.78 44.48,249.99L29.36,249.99L29.36,250Z" style="fill:rgb(154,154,154);fill-rule:nonzero;"/>
    <path d="M353.24,147.1C353.11,145.44 352.96,143.7 351.38,142.84C349.54,141.85 348.3,143.33 347.15,144.41C343.73,147.68 340.41,151.09 337,154.37C326.61,164.35 316.07,174.11 303.2,180.9C298.71,183.28 294.07,185.23 288.88,185.3C284.45,185.38 282.62,183.51 282.87,179.05C283.13,174.19 285.25,169.95 287.65,165.53C292.39,169.69 294.07,170.36 299.54,167.72C318.07,158.75 333.15,145.72 344.34,128.37C345.7,126.27 346.77,123.94 347.66,121.6C350.88,113.13 345.99,106.94 337.04,108.01C329.57,108.92 322.67,111.44 316.16,115.14C302.35,122.96 291.23,133.78 282.25,146.68C271.19,162.56 257.19,175.45 242.47,187.7C241.16,188.77 239.99,190.28 237.92,190.09C237.13,187.96 238.34,186.28 239.13,184.62C250.15,161.39 263.41,139.51 279.17,119.17C279.94,118.18 281.64,117.41 280.88,115.89C280.14,114.39 278.38,114.46 276.9,114.48C270.12,114.59 264.67,117.52 260.19,122.51C252.93,130.59 247.04,139.64 241.11,148.7C230.47,164.9 217.44,179.04 202.29,191.18C200.47,192.64 198.09,195.42 195.8,193.49C193.81,191.83 196,189.06 196.98,187.06C207.95,164.47 220.83,143.06 236.33,123.24C237.08,122.27 238.8,121.47 237.95,119.96C237.17,118.55 235.47,118.46 233.97,118.53C227.58,118.78 222.22,121.28 217.89,125.98C209.18,135.4 201.84,145.86 195.93,157.15C191.44,165.73 185.53,172.9 178.54,179.42C172.36,185.18 166.16,190.91 159.54,196.18C158.55,196.96 157.77,198.23 155.9,198.05C156.16,191.03 159.13,184.94 162.33,178.98C172.67,159.72 185.36,142.03 198.94,124.96C216.05,103.46 234.79,83.5 255.46,65.37C257.61,63.47 260.81,61.51 259.07,58.1C257.33,54.68 253.71,55.62 250.68,56.12C247.89,56.59 245.25,57.65 243.01,59.45C240.24,61.68 237.41,63.85 234.83,66.28C206.02,93.45 180.7,123.54 159.31,156.89C153.3,166.26 148.04,176.06 144.4,186.63C142.37,192.53 140.83,198.58 142.01,204.92C142.98,210.07 145.08,211.71 150.31,211.44C153.3,211.29 156.12,210.38 158.83,209.1C165.61,205.9 171.45,201.39 176.96,196.38C177.88,195.56 178.43,194.09 180.16,194.25C180.07,195.46 179.96,196.63 179.93,197.8C179.83,204.87 182.82,207.8 189.97,207.61C194.39,207.5 198.36,205.92 202.2,203.94C208.98,200.43 214.74,195.55 220.28,190.37C221.14,189.58 221.7,188.17 223.4,188.34C223.3,189.36 223.19,190.24 223.11,191.12C222.14,201.65 227.14,205.74 237.33,202.68C239.17,202.13 240.93,201.28 242.64,200.42C250,196.71 256.21,191.46 262.06,185.73C263.13,184.67 263.83,182.95 265.77,182.96C267.09,195.12 273.57,200.16 285.72,198.67C291.83,197.93 297.58,196.1 303.05,193.34C322.17,183.67 337.56,169.49 351.22,153.24C352.73,151.44 353.43,149.45 353.23,147.1L353.24,147.1ZM323.72,124.7C325.92,123.19 328.34,122.03 330.97,121.43C332.11,121.18 333.41,120.9 334.2,122.11C334.84,123.09 334.34,124.11 333.91,125.07C332.43,128.34 330.22,131.18 327.83,133.79C318.6,143.89 308.5,153 296.47,159.73C294.62,160.76 292.82,162.32 289.65,161.76C299.14,147.21 309.64,134.34 323.72,124.71L323.72,124.7Z" style="fill:rgb(154,154,154);fill-rule:nonzero;"/>
    <path d="M561.35,0.04C570.27,0.02 579.19,0.01 588.12,0C590.34,0.68 592.08,1.99 593.24,4.01C595.28,7.56 593.92,10.91 589.96,11.89C588.69,12.2 587.32,12.2 586,12.22C516.84,13.29 451.74,29.53 391.66,64.37C378.69,71.89 366.53,80.6 354.95,90.12C352.17,92.4 349.62,94.88 348.25,98.26C347.53,100.02 347.38,102.03 344.65,101.9C341.93,101.77 339.69,100.98 338.35,98.5C337.09,96.18 337.05,93.68 337.53,91.14C338.53,85.84 341.33,81.6 345.1,77.85C357.6,65.38 372.24,55.85 387.57,47.38C429.68,24.09 474.82,10.02 522.43,3.61C535.36,1.87 548.34,0.74 561.36,0.04L561.35,0.04Z" style="fill:rgb(154,154,154);fill-rule:nonzero;"/>
    <path d="M364.76,196.96C365.07,192.52 366.76,187.3 368.71,182.18C375.12,165.35 384.04,149.81 393.77,134.74C413.81,103.7 436.05,74.31 460.69,46.77C463.95,43.13 467.36,39.61 470.92,36.27C475.5,31.98 485.29,31.2 490.53,34.45C492.42,35.62 493.55,36.85 491.36,38.91C470.42,58.58 453.22,81.43 435.95,104.2C420.37,124.74 405.62,145.89 393.14,168.5C386.48,180.56 380.12,192.79 378.27,206.77C377.8,210.31 375.11,211.47 371.65,210.07C367.68,208.47 364.73,203.32 364.77,196.95L364.76,196.96Z" style="fill:rgb(154,154,154);fill-rule:nonzero;"/>
    <path d="M599.24,203.28C603.91,201.63 608.97,202.23 613.38,199.78C610.89,197.66 607.74,197.86 604.79,197.57C573.46,194.4 542.04,195.08 510.64,195.87C472.12,196.84 433.68,199.31 395.27,202.24C393.85,202.35 391.02,204.05 391.07,201.27C391.11,198.88 390.48,195.12 395.18,194.8C409.22,193.84 423.23,192.49 437.27,191.46C480.86,188.28 524.47,185.3 568.19,184.69C584.33,184.46 600.5,184 616.5,186.88C620.6,187.62 624.63,188.79 627.8,191.7C631.75,195.33 630.88,201.8 625.9,203.29C617.13,205.91 608.16,205.5 599.24,203.29L599.24,203.28Z" style="fill:rgb(154,154,154);fill-rule:nonzero;"/>
    <path d="M120.59,241.94C114.86,241.19 110.04,239.8 105.59,237.31C104.2,236.53 102.41,235.67 102.75,233.75C103.04,232.12 104.82,231.79 106.23,231.39C118.49,227.83 131.03,225.51 143.59,223.39C191.98,215.23 240.71,209.64 289.5,204.58C309.25,202.53 329.03,200.7 348.79,198.76C352.33,198.41 354.98,201.32 353.99,204.76C353.45,206.65 351.5,205.94 350.21,206.07C336.65,207.45 323.05,208.55 309.5,210.03C250.26,216.51 191.15,223.82 133.24,238.49C128.8,239.61 124.41,240.9 120.59,241.94Z" style="fill:rgb(154,154,154);fill-rule:nonzero;"/>
    <path d="M512.79,219.59C516.19,219.423 517.65,221.137 517.17,224.73C516.16,232.26 515.04,233.64 509.06,234.77C499.58,236.55 494.17,231.79 494.68,222.12C495.24,211.41 501.72,204.98 510.65,206.23C513.83,206.68 516.25,208.23 517.48,211.21C517.98,212.43 519.45,214.29 517.76,215.09C516.11,215.87 513.33,216.61 512.16,214.47C510.88,212.13 509.47,211.02 506.94,211.57C504.29,212.15 503.17,214.24 502.44,216.59C501.46,219.74 501.07,222.99 501.68,226.23C502.29,229.45 505.7,230.8 508.6,229.25C510.06,228.47 510,227.11 510.25,225.84C510.59,224.16 509.34,224.28 508.33,224.3C506.97,224.32 506.03,224.12 506.23,222.37C506.42,220.75 506.73,219.45 508.8,219.58C510.13,219.66 511.46,219.59 512.8,219.59L512.79,219.59Z" style="fill:rgb(154,154,154);fill-rule:nonzero;"/>
    <path d="M539.13,206.35C534.88,204.37 530.64,205.04 527,207.92C521.75,212.08 520.37,217.93 520.82,224.25C521.12,228.44 522.87,232.15 527.11,233.68C531.63,235.32 535.92,234.42 539.51,231.14C543.51,227.49 544.71,222.67 544.93,217.45C544.78,212.85 543.79,208.52 539.12,206.34L539.13,206.35ZM537.22,223.81C536.23,226.78 534.64,229.46 531.01,228.9C527.19,228.33 527.65,225.03 527.51,222.67C527.59,219.12 527.91,216.04 529.65,213.32C530.85,211.43 532.62,210.4 534.91,210.83C537.44,211.3 537.97,213.35 538.16,215.48C538.4,218.31 538.12,221.1 537.23,223.8L537.22,223.81Z" style="fill:rgb(154,154,154);fill-rule:nonzero;"/>
    <path d="M581.59,216.31C583.11,217.3 586.86,213.69 586.57,218.55C586.45,220.51 585.76,221.63 583.62,221.41C583.18,221.36 582.73,221.42 582.29,221.44C575.62,221.66 575.66,221.67 574.57,228.58C574.25,230.58 574.73,233.12 571.15,233.08C568.35,233.04 567.12,232.67 567.69,229.44C568.97,222.16 570,214.83 570.93,207.49C571.22,205.21 572.13,204.53 574.32,204.56C578.46,204.61 582.61,204.36 586.75,204.32C587.93,204.31 589.75,203.74 589.46,206.01C589.25,207.65 589.49,209.77 586.72,209.62C585.1,209.53 583.44,209.91 581.84,209.71C578.34,209.27 576.5,210.51 576.64,214.18C576.81,218.62 580.36,214.53 581.59,216.32L581.59,216.31Z" style="fill:rgb(154,154,154);fill-rule:nonzero;"/>
    <path d="M554.79,233.19C549.03,233.423 546.57,230.747 547.41,225.16C548.26,219.47 549.26,213.8 549.84,208.08C550.24,204.22 552.94,205.21 555.06,205.21C558.05,205.21 556.61,207.43 556.45,208.75C555.79,214.02 555.09,219.28 554.18,224.51C553.72,227.13 554.1,228.46 557.13,228.02C558.72,227.79 560.37,227.88 561.99,227.9C563.36,227.92 565.15,227.36 564.88,229.89C564.68,231.79 564.42,233.39 561.86,233.22C559.51,233.07 557.14,233.19 554.78,233.19L554.79,233.19Z" style="fill:rgb(154,154,154);fill-rule:nonzero;"/>
    <path d="M40.08,208.29C33.75,208.25 29.76,202.42 32.33,196.74C37.94,184.39 45.63,173.3 53.63,162.44C75.36,132.93 98.7,104.77 124.33,78.53C130.21,72.51 136.75,70.96 144.54,73.05C146.41,73.55 148.59,74.13 149.07,76.19C149.57,78.33 147.21,78.94 145.95,80.07C133.5,91.34 122.57,104.05 111.6,116.69C92.56,138.64 73.89,160.89 57.41,184.88C53.13,191.11 48.9,197.38 45.87,204.35C44.76,206.91 42.96,208.41 40.05,208.3L40.08,208.29Z" style="fill:rgb(154,154,154);fill-rule:nonzero;"/>
    <path d="M518.81,134.52C518.81,134.52 518.85,134.49 518.87,134.49C518.88,134.52 518.9,134.55 518.91,134.59C518.87,134.56 518.82,134.51 518.81,134.51L518.81,134.52Z" style="fill:rgb(154,154,154);fill-rule:nonzero;"/>
</svg>
