<?xml version="1.0" encoding="UTF-8" standalone="no"?>
<!DOCTYPE svg PUBLIC "-//W3C//DTD SVG 1.1//EN" "http://www.w3.org/Graphics/SVG/1.1/DTD/svg11.dtd">
<svg width="100%" height="100%" viewBox="0 0 480 250" version="1.1" xmlns="http://www.w3.org/2000/svg" xmlns:xlink="http://www.w3.org/1999/xlink" xml:space="preserve" xmlns:serif="http://www.serif.com/" style="fill-rule:evenodd;clip-rule:evenodd;stroke-linejoin:round;stroke-miterlimit:2;">
    <g>
        <path d="M210.58,195.98C218.67,195.98 221.72,199.15 221.72,205.66L221.72,208.48C221.72,211.82 220.43,214.29 217.97,215.93C220.73,217.51 222.02,220.04 222.02,223.5L222.02,226.9C222.02,233.12 219.44,237.05 211.64,237.05L176.8,237.05C175.63,237.05 175.04,236.46 175.04,235.29L175.04,197.75C175.04,196.58 175.63,195.99 176.8,195.99L210.58,195.99L210.58,195.98ZM184.01,213.05L208.06,213.05C211.93,213.05 213.1,211.88 213.1,209.59L213.1,207.6C213.1,205.2 211.81,204.08 208.76,204.08L184.77,204.08C184.24,204.08 184.01,204.31 184.01,204.84L184.01,213.05ZM184.01,219.43L184.01,228.18C184.01,228.71 184.24,228.94 184.77,228.94L208.82,228.94C211.93,228.94 213.16,227.83 213.16,225.36L213.16,223.13C213.16,220.72 211.93,219.43 208.06,219.43L184.01,219.43Z" style="fill:rgb(154,154,154);fill-rule:nonzero;"/>
        <path d="M254.81,204.84C265.37,204.84 268.77,208.24 268.77,216.75L268.77,232.35C268.77,236.16 267.83,237.04 264.43,237.04L236.51,237.04C229.59,237.04 227.48,234.52 227.48,228.71L227.48,225.89C227.48,220.96 229.59,218.21 236.51,218.21L260.38,218.21L260.38,217.1C260.38,213.35 259.09,211.88 253.99,211.88L229.47,211.88C228.77,211.88 228.41,211.59 228.41,210.82L228.41,205.89C228.41,205.19 228.76,204.83 229.47,204.83L254.81,204.83L254.81,204.84ZM260.38,228.6L260.38,223.44L238.91,223.44C236.5,223.44 235.63,224.44 235.63,226.31L235.63,227.54C235.63,229.65 236.51,230.59 238.91,230.59L258.68,230.59C259.91,230.59 260.38,230.06 260.38,228.6Z" style="fill:rgb(154,154,154);fill-rule:nonzero;"/>
        <path d="M284.83,204.85L284.83,197.1C284.83,196.22 285.3,195.81 286.12,195.81L291.93,195.81C292.75,195.81 293.22,196.22 293.22,197.1L293.22,204.84L303.48,204.84C304.24,204.84 304.54,205.19 304.54,205.9L304.54,210.71C304.54,211.41 304.25,211.77 303.48,211.77L293.22,211.77L293.22,225.38C293.22,228.61 294.28,230.13 298.15,230.13L303.84,230.13C304.6,230.13 304.9,230.48 304.9,231.19L304.9,236C304.9,236.7 304.61,237.06 303.84,237.06L296.74,237.06C287.36,237.06 284.83,233.72 284.83,225.39L284.83,211.78L279.26,211.78C278.56,211.78 278.2,211.43 278.2,210.72L278.2,205.91C278.2,205.21 278.55,204.85 279.26,204.85L284.83,204.85Z" style="fill:rgb(154,154,154);fill-rule:nonzero;"/>
        <path d="M317.09,204.85L317.09,197.1C317.09,196.22 317.56,195.81 318.38,195.81L324.19,195.81C325.01,195.81 325.48,196.22 325.48,197.1L325.48,204.84L335.74,204.84C336.5,204.84 336.8,205.19 336.8,205.9L336.8,210.71C336.8,211.41 336.51,211.77 335.74,211.77L325.48,211.77L325.48,225.38C325.48,228.61 326.54,230.13 330.41,230.13L336.1,230.13C336.86,230.13 337.16,230.48 337.16,231.19L337.16,236C337.16,236.7 336.87,237.06 336.1,237.06L329,237.06C319.62,237.06 317.09,233.72 317.09,225.39L317.09,211.78L311.52,211.78C310.82,211.78 310.46,211.43 310.46,210.72L310.46,205.91C310.46,205.21 310.81,204.85 311.52,204.85L317.09,204.85Z" style="fill:rgb(154,154,154);fill-rule:nonzero;"/>
        <path d="M377.62,204.84C385.66,204.84 387.77,207.36 387.77,214.46L387.77,220.03C387.77,222.55 386.71,223.37 384.43,223.37L354.81,223.37L354.81,224.78C354.81,228.48 356.16,230 361.26,230L385.72,230C386.42,230 386.78,230.35 386.78,231.06L386.78,235.99C386.78,236.69 386.43,237.05 385.72,237.05L360.44,237.05C349.88,237.05 346.48,233.71 346.48,225.2L346.48,216.75C346.48,208.25 349.88,204.84 360.44,204.84L377.63,204.84L377.62,204.84ZM354.8,218.15L378.56,218.15C379.26,218.15 379.56,217.92 379.56,217.15L379.56,214.69C379.56,212.29 378.68,211.35 375.98,211.35L361.26,211.35C356.16,211.35 354.81,212.82 354.81,216.57L354.81,218.15L354.8,218.15Z" style="fill:rgb(154,154,154);fill-rule:nonzero;"/>
        <path d="M426.6,204.84C427.3,204.84 427.66,205.19 427.66,205.9L427.66,210.83C427.66,211.59 427.31,211.89 426.6,211.89L411,211.89C405.96,211.89 404.61,213.41 404.61,218.34L404.61,235.76C404.61,236.64 404.2,237.05 403.32,237.05L397.57,237.05C396.69,237.05 396.22,236.64 396.22,235.76L396.22,216.76C396.22,208.26 399.62,204.85 410.18,204.85L426.6,204.85L426.6,204.84Z" style="fill:rgb(154,154,154);fill-rule:nonzero;"/>
        <path d="M478.27,204.84C479.09,204.84 479.44,205.54 479.03,206.31L456.51,246.02C454.99,248.72 452.29,250.01 447.24,250.01L443.13,250.01C442.43,250.01 442.07,249.66 442.07,248.95L442.07,244.14C442.07,243.44 442.42,243.08 443.13,243.08L446.59,243.08C448.17,243.08 449.05,242.67 449.58,241.73L452.75,236.16C450.81,235.98 449.93,235.28 449,233.64L433.16,206.31C432.75,205.55 433.1,204.84 433.92,204.84L440.67,204.84C441.37,204.84 441.78,205.07 442.08,205.66L455.1,228.24C455.75,229.3 455.98,229.59 456.51,229.59L470.29,205.66C470.58,205.07 470.99,204.84 471.7,204.84L478.27,204.84Z" style="fill:rgb(154,154,154);fill-rule:nonzero;"/>
    </g>
    <g>
        <path d="M89.6,204.84C90.3,204.84 90.66,205.19 90.66,205.9L90.66,210.83C90.66,211.59 90.31,211.89 89.6,211.89L66.84,211.89C61.74,211.89 60.45,213.41 60.45,218.34L60.45,223.56C60.45,228.49 61.74,230.01 66.84,230.01L89.6,230.01C90.3,230.01 90.66,230.36 90.66,231.07L90.66,236C90.66,236.7 90.31,237.06 89.6,237.06L66.02,237.06C55.46,237.06 52.06,233.72 52.06,225.21L52.06,216.76C52.06,208.26 55.46,204.85 66.02,204.85L89.6,204.85L89.6,204.84Z" style="fill:rgb(154,154,154);fill-rule:nonzero;"/>
        <path d="M126.26,204.84C136.82,204.84 140.22,208.24 140.22,216.75L140.22,225.2C140.22,233.7 136.82,237.05 126.26,237.05L109.66,237.05C99.1,237.05 95.7,233.71 95.7,225.2L95.7,216.75C95.7,208.25 99.1,204.84 109.66,204.84L126.26,204.84ZM104.09,223.73C104.09,228.66 105.44,230.18 110.48,230.18L125.44,230.18C130.54,230.18 131.89,228.66 131.89,223.73L131.89,218.16C131.89,213.23 130.54,211.77 125.44,211.77L110.48,211.77C105.44,211.77 104.09,213.24 104.09,218.16L104.09,223.73Z" style="fill:rgb(154,154,154);fill-rule:nonzero;"/>
        <g>
            <path d="M42.83,195.8L0,195.8L0,237.04L42.83,237.04L42.83,229.97L7.07,229.97L7.07,202.87L42.83,202.87L42.83,195.8Z" style="fill:rgb(154,154,154);fill-rule:nonzero;"/>
            <rect x="14.92" y="212.13" width="25.99" height="6.32" style="fill:rgb(154,154,154);"/>
        </g>
    </g>
    <path d="M391.55,76.41C391.55,76.41 411.94,69 411.94,40.04C411.94,1.57 367.18,0 367.18,0L240.64,0L240.64,28.78L362.76,28.78C367.73,28.78 383.69,31.4 383.69,48.41C383.69,65.42 367.47,66.99 367.47,66.99L240.64,66.99L240.64,161.06L367.73,161.06C387.36,161.06 414.96,146.67 414.96,114.74C414.96,82.81 391.54,76.41 391.54,76.41L391.55,76.41ZM356.75,133.19L269.35,133.19L269.35,91.32L364.6,91.32C364.6,91.32 385.53,91.58 385.53,110.16C385.53,128.74 370.35,133.19 356.75,133.19Z" style="fill:rgb(154,154,154);fill-rule:nonzero;"/>
    <rect x="112.34" y="66.99" width="90.01" height="24.34" style="fill:rgb(154,154,154);"/>
    <path d="M208.9,28.78L208.9,0L64.2,0L64.2,161.06L208.9,161.06L208.9,132.27L92.72,132.27L92.72,28.78L208.9,28.78Z" style="fill:rgb(154,154,154);fill-rule:nonzero;"/>
</svg>
