<?xml version="1.0" encoding="UTF-8" standalone="no"?>
<!DOCTYPE svg PUBLIC "-//W3C//DTD SVG 1.1//EN" "http://www.w3.org/Graphics/SVG/1.1/DTD/svg11.dtd">
<svg width="100%" height="100%" viewBox="0 0 817 250" version="1.1" xmlns="http://www.w3.org/2000/svg" xmlns:xlink="http://www.w3.org/1999/xlink" xml:space="preserve" xmlns:serif="http://www.serif.com/" style="fill-rule:evenodd;clip-rule:evenodd;stroke-linejoin:round;stroke-miterlimit:2;">
    <g>
        <g>
            <path d="M357.98,95.19L352.02,111.53C344.5,107.64 331.9,104.61 320.13,104.61C300.42,104.61 292.26,108.41 290.61,112.93C289.02,117.3 294.99,118.31 304.36,119.13L325.13,120.96C346.56,122.83 356.06,127.88 350.82,142.25L350.79,142.35C343.15,163.31 316.15,167.35 295.97,167.35C275.79,167.35 263.35,161.25 256.92,157.26L263.32,139.72C273.35,147.41 285.77,151.98 301.68,151.98C316.53,151.98 329.99,149.48 332.3,143.14C334.02,138.43 327.91,136.84 316.78,135.88L298.05,134.25C277.37,132.42 267.38,126.75 272.16,113.63C277.66,98.54 297,89.26 323.34,89.26C344.3,89.26 355.76,94.07 357.99,95.22L357.98,95.19Z" style="fill:rgb(154,154,154);fill-rule:nonzero;"/>
            <path d="M383.87,91.89L469.17,91.89L463.74,106.79L378.44,106.79L383.87,91.89ZM373.29,120.92L453.79,120.92L448.36,135.82L386.13,135.82L381.95,147.29C381.41,148.76 382.17,149.95 383.64,149.95L448.02,149.95L442.59,164.85L375.25,164.85C365.33,164.85 360.22,156.81 363.84,146.89L373.31,120.92L373.29,120.92Z" style="fill:rgb(154,154,154);fill-rule:nonzero;"/>
            <path d="M628.06,91.89L713.36,91.89L707.93,106.79L622.63,106.79L628.06,91.89ZM617.48,120.92L697.98,120.92L692.55,135.82L630.32,135.82L626.14,147.29C625.6,148.76 626.36,149.95 627.83,149.95L692.21,149.95L686.78,164.85L619.44,164.85C609.52,164.85 604.41,156.81 608.03,146.89L617.5,120.92L617.48,120.92Z" style="fill:rgb(154,154,154);fill-rule:nonzero;"/>
            <path d="M486.85,91.89L550.92,91.89C557.75,91.89 564.16,92.23 568.7,95.59C574.6,99.96 575.56,108.28 572.55,116.55C568.98,126.36 560.07,135.63 549.46,139.14L554.94,164.86L533.84,164.86L528.81,141.21L487.14,141.21L478.52,164.86L460.25,164.86L474.48,125.83L535.62,125.83C542.88,125.83 550.96,125.69 554.29,116.55C557.62,107.42 549.64,107.27 542.39,107.27L481.25,107.27L486.86,91.89L486.85,91.89Z" style="fill:rgb(154,154,154);fill-rule:nonzero;"/>
            <path d="M610.63,91.89L584.03,164.86L565.76,164.86L592.36,91.89L610.63,91.89Z" style="fill:rgb(154,154,154);fill-rule:nonzero;"/>
            <path d="M805.49,95.19L799.53,111.53C792.01,107.64 779.41,104.61 767.64,104.61C747.93,104.61 739.77,108.41 738.12,112.93C736.53,117.3 742.5,118.31 751.87,119.13L772.64,120.96C794.07,122.83 803.57,127.88 798.33,142.25L798.3,142.35C790.66,163.31 763.66,167.35 743.48,167.35C723.3,167.35 710.86,161.25 704.43,157.26L710.83,139.72C720.86,147.41 733.28,151.98 749.19,151.98C764.04,151.98 777.5,149.48 779.81,143.14C781.53,138.43 775.42,136.84 764.29,135.88L745.56,134.25C724.88,132.42 714.89,126.75 719.67,113.63C725.17,98.54 744.51,89.26 770.85,89.26C791.81,89.26 803.27,94.07 805.5,95.22L805.49,95.19Z" style="fill:rgb(154,154,154);fill-rule:nonzero;"/>
        </g>
        <path d="M165.95,210.8L240.06,210.8L210.72,126.13L344.73,8.78L275.08,8.78L195.65,79.04L185.47,45.77L111.14,45.77L139.89,128.03L0,250L74.37,250L155.5,175.32L165.95,210.8Z" style="fill:rgb(154,154,154);fill-rule:nonzero;"/>
    </g>
    <g>
        <path d="M566.48,47.6L574.46,25.69L559.31,47.6L548.82,47.6L549.62,25.69L541.64,47.6L530.19,47.6L544.32,8.78L560.63,8.78L559.72,32.12L576.25,8.78L592.01,8.78L577.88,47.6L566.48,47.6Z" style="fill:rgb(154,154,154);fill-rule:nonzero;"/>
        <path d="M593.34,47.6L580.69,47.6L610.38,8.78L625.99,8.78L626.42,47.6L613.57,47.6L613.66,39.35L599.45,39.35L593.33,47.6L593.34,47.6ZM613.92,21.95L614.3,18.71L612.28,22.05L605.44,31.19L613.82,31.19L613.92,21.95Z" style="fill:rgb(154,154,154);fill-rule:nonzero;"/>
        <path d="M651.97,47.6L629.48,47.6L643.61,8.78L665.5,8.78C672.73,8.78 676.57,10.5 677.81,13.84C679.07,17.13 678.34,20.38 675.77,27.45C672.77,35.7 671.1,38.75 667.72,41.99C664,45.58 659.16,47.59 651.98,47.59L651.97,47.6ZM663.97,27.45C664.99,24.65 665.99,21.06 665.38,19.98C664.43,18.31 663.14,17.87 660.13,17.87L652.45,17.87L644.96,38.46L652.64,38.46C655.75,38.46 657.64,37.82 659.57,36.25C661.07,35.02 662.83,30.6 663.98,27.45L663.97,27.45Z" style="fill:rgb(154,154,154);fill-rule:nonzero;"/>
        <path d="M711.26,47.6L698.61,47.6L728.3,8.78L743.91,8.78L744.34,47.6L731.49,47.6L731.58,39.35L717.37,39.35L711.25,47.6L711.26,47.6ZM731.84,21.95L732.22,18.71L730.2,22.05L723.36,31.19L731.74,31.19L731.84,21.95Z" style="fill:rgb(154,154,154);fill-rule:nonzero;"/>
        <path d="M774.07,47.58L791.52,47.58L784.61,27.64L816.17,0L799.77,0L781.06,16.55L778.66,8.71L761.16,8.71L767.93,28.08L734.98,56.81L752.5,56.81L771.61,39.22L774.07,47.58Z" style="fill:rgb(154,154,154);fill-rule:nonzero;"/>
        <path d="M698.7,8.69C695.31,18.24 690.18,32.69 689.18,34.49C687.69,37.15 684.65,38.67 681.19,38.67C675.92,38.62 675.06,38.33 675.06,38.33L671.98,47.42C671.98,47.42 675.93,48.08 682.74,47.91C691.37,47.91 698.19,43.54 701.05,35.67L711.19,8.69L698.7,8.69Z" style="fill:rgb(154,154,154);fill-rule:nonzero;"/>
    </g>
</svg>
