<?xml version="1.0" encoding="UTF-8" standalone="no"?>
<!DOCTYPE svg PUBLIC "-//W3C//DTD SVG 1.1//EN" "http://www.w3.org/Graphics/SVG/1.1/DTD/svg11.dtd">
<svg width="100%" height="100%" viewBox="0 0 427 100" version="1.1" xmlns="http://www.w3.org/2000/svg" xmlns:xlink="http://www.w3.org/1999/xlink" xml:space="preserve" xmlns:serif="http://www.serif.com/" style="fill-rule:evenodd;clip-rule:evenodd;stroke-linejoin:round;stroke-miterlimit:2;">
    <g>
        <g>
            <g>
                <path d="M75.6,24.5C73.5,41.4 71.8,58 71.6,58L71.5,58C71.4,58 59.6,37.9 54.6,29.9L37.9,3.2L16.8,3.2L14.3,23.4L14.3,23.6L5.3,96.6L27.7,96.6L30.2,75.9C32.4,58.2 33.8,45 34.2,41.8C37.8,47.8 46.8,61.9 52,70.5L67.9,96.5L89,96.5L100.5,3.1L78.2,3.1L75.6,24.5Z" style="fill:rgb(154,154,154);fill-rule:nonzero;"/>
                <path d="M109.9,96.6L132.3,96.6L143.8,3.2L121.4,3.2L109.9,96.6Z" style="fill:rgb(154,154,154);fill-rule:nonzero;"/>
                <path d="M224.2,3.2L199.9,54.7C195,65.1 192.6,71.8 192.5,71.8L192.4,71.8C192.3,71.8 191.5,65.1 189.2,54.7L177.4,3.2L152.9,3.2L177.3,96.6L201.4,96.6L248.7,3.2L224.2,3.2Z" style="fill:rgb(154,154,154);fill-rule:nonzero;"/>
                <path d="M359.6,75.7L360.1,72.1L368.6,3.2L346.2,3.2L334.8,96.6L401.2,96.6L403.8,75.6L359.6,75.7Z" style="fill:rgb(154,154,154);fill-rule:nonzero;"/>
                <path d="M255.3,23.8L323.1,23.8L325.6,3.2L257.8,3.2L255.3,23.8Z" style="fill:rgb(154,154,154);fill-rule:nonzero;"/>
                <path d="M273.3,59.1L308.9,59.1L311.3,39.5L275.7,39.5L277.2,30L254.8,30L246.3,96.6L315,96.6L317.6,75.6L271.3,75.6L273.3,59.1Z" style="fill:rgb(154,154,154);fill-rule:nonzero;"/>
            </g>
            <g>
                <path d="M408.8,90.6C408.8,86.9 411.6,84.2 415.1,84.2C418.6,84.2 421.4,86.9 421.4,90.6C421.4,94.3 418.6,97 415.1,97C411.6,97 408.8,94.3 408.8,90.6M420.2,90.6C420.2,87.5 418,85.2 415.1,85.2C412.2,85.2 410,87.5 410,90.6C410,93.7 412.2,96 415.1,96C418.1,96 420.2,93.7 420.2,90.6M412.3,87.2L415.7,87.2C417,87.2 418.1,87.9 418.1,89.2C418.1,90 417.7,90.5 416.9,90.8L416.9,90.9C417.5,91.1 417.8,91.5 417.9,92.1C418.1,92.9 418,93.7 418.2,93.9L418.2,94L416.4,94C416.2,93.9 416.2,93.1 416.1,92.4C416,91.8 415.7,91.5 415,91.5L414.1,91.5L414.1,93.9L412.3,93.9L412.3,87.2ZM414.2,90.2L415.3,90.2C415.9,90.2 416.2,89.9 416.2,89.4C416.2,88.9 415.9,88.6 415.3,88.6L414.2,88.6L414.2,90.2Z" style="fill:rgb(154,154,154);fill-rule:nonzero;"/>
            </g>
        </g>
    </g>
</svg>
