<?xml version="1.0" standalone="no"?>
<!DOCTYPE svg PUBLIC "-//W3C//DTD SVG 20010904//EN"
 "http://www.w3.org/TR/2001/REC-SVG-20010904/DTD/svg10.dtd">
<svg version="1.0" xmlns="http://www.w3.org/2000/svg"
 width="700.000000pt" height="700.000000pt" viewBox="0 0 700.000000 700.000000"
 preserveAspectRatio="xMidYMid meet">
<metadata>
Created by potrace 1.14, written by Peter Selinger 2001-2017
</metadata>
<g transform="translate(0.000000,700.000000) scale(0.100000,-0.100000)"
fill="#000000" stroke="none">
<path d="M3431 6402 c-18 -15 -51 -131 -77 -269 -4 -19 -77 -348 -240 -1073
-26 -113 -48 -207 -50 -209 -2 -2 -34 25 -72 62 -37 36 -83 80 -102 98 -19 18
-85 80 -146 138 -276 263 -263 252 -292 249 -15 -2 -31 -12 -37 -24 -6 -13
-10 -167 -10 -417 0 -218 -2 -397 -4 -397 -6 0 -97 51 -416 233 -154 88 -305
173 -335 190 -30 17 -72 41 -92 54 -21 13 -39 23 -42 23 -2 0 -75 41 -162 91
-88 50 -169 95 -181 100 -27 10 -63 -16 -65 -46 -1 -11 162 -291 361 -623 200
-332 361 -605 359 -607 -2 -2 -120 -7 -263 -11 -143 -3 -307 -8 -365 -9 -58
-2 -122 -4 -142 -4 -41 -1 -68 -22 -68 -54 0 -14 90 -111 286 -308 285 -286
286 -287 255 -294 -17 -3 -33 -6 -36 -6 -2 0 -23 -6 -45 -14 -22 -8 -40 -12
-40 -10 0 2 -15 -1 -32 -6 -18 -6 -42 -12 -53 -15 -220 -48 -1303 -328 -1314
-339 -11 -11 -13 -21 -5 -41 11 -33 22 -39 109 -58 73 -15 204 -45 540 -120
342 -77 569 -128 594 -132 133 -25 333 -79 372 -101 27 -14 90 -66 141 -115
l91 -88 26 17 c74 48 131 100 139 128 6 22 2 54 -15 116 -40 147 -51 250 -48
434 1 94 5 181 9 195 7 32 14 67 21 105 18 112 96 311 173 444 206 358 535
612 932 721 177 48 419 69 570 49 111 -15 132 -19 217 -39 357 -84 701 -326
910 -640 103 -155 172 -311 217 -490 27 -109 31 -131 42 -240 5 -51 11 -68 27
-80 41 -28 87 -77 227 -245 41 -50 84 -101 95 -114 60 -72 73 -81 100 -71 14
5 36 12 48 14 12 2 159 39 327 81 168 42 312 78 320 80 123 26 786 198 796
206 35 29 5 83 -51 93 -54 9 -90 17 -107 22 -10 3 -30 8 -45 10 -16 3 -75 16
-133 30 -122 28 -150 35 -170 39 -8 2 -118 26 -245 55 -126 28 -351 78 -500
111 -148 33 -278 62 -288 65 -15 5 -7 17 46 72 36 37 85 88 108 113 106 113
326 344 350 368 35 35 42 62 25 87 -14 18 -33 19 -425 24 l-410 5 111 195 c60
107 120 214 133 237 13 22 35 59 49 82 14 22 26 42 26 45 0 3 156 280 195 346
8 14 54 94 102 179 83 148 86 155 72 180 -8 14 -24 27 -34 29 -11 1 -90 -40
-179 -93 -87 -52 -162 -95 -167 -95 -5 0 -9 -4 -9 -9 0 -5 -6 -11 -12 -13 -14
-3 -775 -458 -820 -489 -46 -33 -53 -26 -54 54 -2 166 -16 665 -19 701 -5 47
-15 59 -50 59 -22 0 -80 -53 -311 -284 -188 -188 -285 -278 -288 -268 -3 7
-89 349 -191 759 -102 410 -189 751 -193 759 -14 25 -49 32 -71 13z"/>
<path d="M3055 3479 c-49 -14 -80 -55 -245 -322 l-155 -252 -175 -105 c-207
-124 -210 -128 -235 -294 -10 -61 -18 -118 -20 -126 -1 -8 -6 -38 -10 -66 l-6
-50 -180 -143 c-99 -78 -183 -141 -188 -139 -5 2 -75 66 -156 143 -80 77 -158
146 -171 153 -53 28 -138 20 -192 -17 -13 -9 -133 -170 -268 -358 -135 -189
-251 -343 -258 -344 -132 -8 -187 -41 -257 -160 -27 -45 -240 -376 -357 -554
-85 -129 -92 -148 -67 -175 17 -19 27 -20 104 -15 47 2 138 7 201 10 63 3 153
8 200 10 86 5 234 12 410 20 52 2 151 6 220 10 1082 49 2445 49 3485 0 55 -2
156 -7 225 -10 69 -3 157 -7 195 -10 39 -2 120 -7 180 -10 114 -6 197 -11 325
-20 41 -3 107 -8 145 -10 192 -13 234 -16 280 -20 28 -2 100 -7 160 -10 61 -4
128 -9 150 -10 63 -6 228 -17 250 -17 45 -1 56 3 66 26 12 27 1 52 -80 176
-40 62 -463 736 -809 1290 -135 216 -156 232 -327 236 -60 1 -113 3 -117 3 -4
1 -57 61 -119 134 -61 72 -121 143 -133 157 -11 14 -43 52 -71 85 -99 119
-139 142 -227 132 -43 -5 -102 -36 -128 -67 -3 -3 -50 -46 -105 -95 -137 -123
-170 -153 -229 -207 -28 -26 -55 -47 -61 -47 -5 -1 -75 112 -155 250 -189 326
-180 319 -424 323 -63 1 -116 3 -118 6 -2 3 -47 57 -99 120 -51 63 -101 124
-110 135 -200 245 -233 267 -344 234z m171 -226 c48 -60 92 -112 98 -118 6 -5
29 -32 51 -60 21 -27 42 -52 45 -55 3 -3 23 -27 45 -55 60 -75 93 -105 118
-106 12 -1 81 -2 152 -3 72 -2 139 -7 150 -13 10 -6 98 -147 195 -314 125
-215 182 -305 196 -306 11 -2 40 16 69 43 28 26 68 63 90 83 152 137 245 220
275 247 19 17 53 48 75 68 38 35 76 45 101 28 7 -4 28 -27 49 -52 69 -84 120
-144 160 -190 22 -26 76 -90 120 -143 44 -52 87 -99 95 -103 8 -5 74 -11 146
-14 112 -4 135 -8 153 -24 12 -11 108 -157 213 -325 105 -168 205 -328 223
-356 57 -88 407 -649 427 -684 33 -57 10 -48 -69 30 -42 40 -88 85 -103 99
-14 14 -95 90 -180 170 -85 80 -193 182 -240 226 -129 123 -194 184 -200 184
-3 0 -25 -19 -50 -43 -25 -23 -84 -76 -130 -117 -47 -41 -87 -78 -90 -81 -35
-39 -313 -280 -320 -277 -13 4 -10 9 189 331 148 240 170 281 159 295 -7 10
-36 42 -64 72 -46 50 -112 122 -234 254 -25 26 -61 65 -80 86 -19 20 -75 81
-125 135 -49 54 -104 104 -121 111 -43 18 -91 3 -140 -42 -59 -55 -162 -152
-353 -334 l-173 -165 5 -65 c3 -36 8 -74 10 -85 3 -11 8 -40 12 -65 4 -25 9
-54 11 -65 2 -11 13 -74 25 -139 11 -66 22 -123 24 -127 8 -11 -21 -30 -36
-23 -8 3 -74 74 -147 158 -73 84 -145 165 -160 182 -15 16 -63 69 -107 119
-44 49 -84 95 -90 101 -5 6 -37 41 -70 79 -81 92 -92 102 -122 108 -30 6 -31
5 -312 -269 -290 -282 -324 -314 -332 -314 -22 0 -11 36 41 135 31 61 130 253
220 428 l162 319 3 251 3 252 -56 100 c-66 120 -78 135 -109 135 -46 0 -61
-18 -107 -138 l-46 -118 -185 -142 c-115 -89 -187 -151 -190 -165 -3 -12 -7
-85 -9 -162 -2 -77 -7 -148 -11 -157 -4 -10 -39 -43 -78 -75 -40 -32 -74 -60
-77 -63 -3 -3 -66 -55 -140 -115 -260 -211 -253 -205 -252 -242 0 -19 21 -63
51 -112 28 -44 51 -85 51 -90 0 -5 4 -11 8 -13 15 -6 40 -70 35 -89 -3 -11
-35 -41 -72 -68 -36 -27 -129 -97 -205 -155 -131 -99 -156 -115 -156 -100 0 4
47 84 105 179 58 95 105 181 105 192 0 21 -25 57 -70 104 -14 14 -117 121
-229 237 -126 132 -209 211 -220 209 -28 -5 -45 -21 -68 -62 -11 -22 -31 -58
-43 -80 -13 -22 -36 -65 -53 -95 -16 -30 -45 -81 -63 -113 -19 -32 -34 -60
-34 -62 0 -3 -19 -37 -43 -77 -23 -40 -48 -86 -55 -101 -17 -39 -39 -44 -86
-19 -47 25 -69 27 -88 9 -7 -7 -80 -66 -163 -132 -82 -66 -152 -122 -155 -125
-21 -24 -252 -201 -257 -197 -3 4 17 41 45 84 154 238 218 337 227 351 55 89
109 163 124 172 11 5 44 10 75 10 73 0 80 4 123 64 20 28 53 74 73 101 20 28
115 160 211 295 95 135 182 253 193 263 38 34 56 24 207 -123 182 -177 219
-210 235 -210 24 0 480 362 488 387 3 10 8 36 11 58 3 22 10 65 15 95 5 30 14
89 20 130 6 41 13 83 16 92 3 9 57 48 120 85 63 37 132 78 152 91 20 12 47 28
60 34 22 11 60 67 188 276 189 308 177 292 210 292 17 0 45 -27 110 -107z"/>
</g>
</svg>
